<svg width="43" height="43" viewBox="0 0 43 43" fill="none" xmlns="http://www.w3.org/2000/svg">
<path d="M21.5 0.0667725C17.2972 0.0667725 13.1887 1.31306 9.69414 3.64804C6.1996 5.98302 3.47593 9.30182 1.86757 13.1847C0.259207 17.0677 -0.161614 21.3403 0.658322 25.4624C1.47826 29.5845 3.50212 33.3709 6.47399 36.3428C9.44586 39.3147 13.2322 41.3385 17.3543 42.1585C21.4764 42.9784 25.7491 42.5576 29.632 40.9492C33.515 39.3409 36.8338 36.6172 39.1687 33.1226C41.5037 29.6281 42.75 25.5196 42.75 21.3168C42.75 18.5262 42.2004 15.7629 41.1325 13.1847C40.0645 10.6066 38.4993 8.264 36.526 6.29075C34.5528 4.31751 32.2102 2.75224 29.632 1.68433C27.0539 0.61642 24.2906 0.0667725 21.5 0.0667725ZM17.3543 28.3168V13.1977L29 21.3168L17.3543 28.3168Z" fill="white"/>
</svg>
