<svg width="22" height="23" viewBox="0 0 22 23" xmlns="http://www.w3.org/2000/svg">
<path d="M18.15 8.15482C18.2776 8.15482 18.3953 8.19882 18.4888 8.27252L18.5625 8.34182L18.5812 8.36382C19.2202 9.15589 19.627 10.1097 19.7562 11.1192C19.8854 12.1287 19.732 13.1543 19.313 14.0818C18.894 15.0093 18.2259 15.8023 17.383 16.3726C16.5401 16.943 15.5554 17.2683 14.5387 17.3123L14.3 17.3167H7.69996C7.58879 17.3167 7.47764 17.3134 7.36666 17.3068L9.18936 19.1273C9.2803 19.2185 9.33639 19.3386 9.34785 19.4669C9.3593 19.5951 9.32541 19.7233 9.25206 19.8291L9.18936 19.9061C9.09822 19.9971 8.97806 20.0531 8.84982 20.0646C8.72158 20.0761 8.59338 20.0422 8.48756 19.9688L8.41056 19.9061L5.66056 17.1561C5.56962 17.065 5.51353 16.9448 5.50208 16.8166C5.49062 16.6883 5.52452 16.5601 5.59786 16.4543L5.66056 16.3773L8.41056 13.6273C8.50757 13.5299 8.63756 13.4723 8.77491 13.4659C8.91226 13.4596 9.04701 13.5049 9.1526 13.593C9.2582 13.681 9.32698 13.8055 9.34539 13.9417C9.3638 14.078 9.3305 14.2162 9.25206 14.3291L9.18936 14.4061L7.38866 16.2057L7.54266 16.2145L7.69996 16.2167H14.3C15.1309 16.2168 15.9448 15.9816 16.6476 15.5383C17.3504 15.0951 17.9134 14.4619 18.2713 13.712C18.6292 12.9621 18.7674 12.1262 18.6701 11.301C18.5727 10.4758 18.2436 9.69508 17.721 9.04912C17.6564 8.96825 17.6159 8.87079 17.6043 8.76796C17.5926 8.66513 17.6102 8.56109 17.655 8.4678C17.6998 8.37451 17.77 8.29575 17.8576 8.24058C17.9451 8.18541 18.0465 8.15607 18.15 8.15592V8.15482ZM12.8106 3.72732C12.9017 3.63638 13.0219 3.58029 13.1501 3.56883C13.2783 3.55738 13.4065 3.59127 13.5124 3.66462L13.5894 3.72732L16.3394 6.47732L16.4021 6.55432C16.4654 6.64617 16.4994 6.75512 16.4994 6.86672C16.4994 6.97832 16.4654 7.08727 16.4021 7.17912L16.3394 7.25612L13.5894 10.0061L13.5124 10.0688C13.4205 10.1322 13.3116 10.1662 13.2 10.1662C13.0884 10.1662 12.9794 10.1322 12.8876 10.0688L12.8106 10.0061L12.7479 9.92912C12.6845 9.83727 12.6505 9.72832 12.6505 9.61672C12.6505 9.50512 12.6845 9.39617 12.7479 9.30432L12.8106 9.22732L14.6113 7.42772L14.4573 7.41892L14.3 7.41672H7.69996C6.86834 7.41667 6.05373 7.6523 5.35055 8.0963C4.64737 8.5403 4.08442 9.17449 3.72694 9.92537C3.36946 10.6762 3.2321 11.513 3.33078 12.3388C3.42945 13.1645 3.76012 13.9454 4.28446 14.5909C4.37213 14.7078 4.40979 14.8546 4.38916 14.9993C4.36853 15.1439 4.2913 15.2744 4.17446 15.362C4.11661 15.4054 4.05077 15.437 3.98071 15.455C3.91065 15.4729 3.83773 15.4769 3.76613 15.4667C3.62152 15.4461 3.49103 15.3689 3.40336 15.252C2.76869 14.4587 2.36614 13.5052 2.24033 12.4971C2.11453 11.489 2.2704 10.4658 2.69065 9.54085C3.1109 8.61593 3.77911 7.82548 4.62119 7.25716C5.46326 6.68884 6.44629 6.36485 7.46126 6.32112L7.69996 6.31672H14.3C14.4122 6.31672 14.5233 6.32002 14.6333 6.32662L12.8106 4.50612L12.7479 4.42912C12.6745 4.3233 12.6406 4.1951 12.6521 4.06686C12.6635 3.93862 12.7196 3.81846 12.8106 3.72732Z" fill="#C4C4C4"/>
</svg>