<svg width="26" height="32" viewBox="0 0 26 32" fill="none" xmlns="http://www.w3.org/2000/svg">
<path d="M8.46875 5.44385H16.625V8.1626L22.9688 4.5376L16.625 0.912598V3.63135H8.46875C3.9375 3.63135 0.3125 7.25635 0.3125 11.7876C0.3125 12.8751 0.49375 13.9626 1.0375 15.0501L2.66875 14.1438C2.30625 13.4188 2.125 12.6938 2.125 11.7876C2.125 8.34385 5.025 5.44385 8.46875 5.44385ZM24.9625 8.5251L23.3312 9.43135C23.6937 10.1563 23.875 10.8813 23.875 11.7876C23.875 15.2313 20.975 18.1313 17.5312 18.1313H9.375V15.4126L3.03125 19.0376L9.375 22.6626V19.9438H17.5312C22.0625 19.9438 25.6875 16.3188 25.6875 11.7876C25.6875 10.7001 25.5063 9.6126 24.9625 8.5251Z" fill="#EAFF01"/>
<path d="M15.5 29.2876C15.5 30.3922 14.6046 31.2876 13.5 31.2876C12.3954 31.2876 11.5 30.3922 11.5 29.2876C11.5 28.1831 12.3954 27.2876 13.5 27.2876C14.6046 27.2876 15.5 28.1831 15.5 29.2876Z" fill="#EAFF01"/>
</svg>
