<svg width="30" height="30" viewBox="0 0 30 30" fill="none" xmlns="http://www.w3.org/2000/svg">
<path d="M10.4688 8.44385H18.625V11.1626L24.9688 7.5376L18.625 3.9126V6.63135H10.4688C5.9375 6.63135 2.3125 10.2563 2.3125 14.7876C2.3125 15.8751 2.49375 16.9626 3.0375 18.0501L4.66875 17.1438C4.30625 16.4188 4.125 15.6938 4.125 14.7876C4.125 11.3438 7.025 8.44385 10.4688 8.44385ZM26.9625 11.5251L25.3312 12.4313C25.6937 13.1563 25.875 13.8813 25.875 14.7876C25.875 18.2313 22.975 21.1313 19.5312 21.1313H11.375V18.4126L5.03125 22.0376L11.375 25.6626V22.9438H19.5312C24.0625 22.9438 27.6875 19.3188 27.6875 14.7876C27.6875 13.7001 27.5063 12.6126 26.9625 11.5251Z" fill="#EAFF01"/>
</svg>
