<svg width="27" height="20" viewBox="0 0 27 20" fill="none" xmlns="http://www.w3.org/2000/svg">
<path d="M24.0052 1.87886C22.6608 0.748832 20.8556 0.0809658 18.9477 0.00769666C17.0398 -0.0655725 15.1685 0.461106 13.705 1.48329C13.5366 1.58914 13.3338 1.65017 13.1231 1.6584C12.9111 1.65325 12.7067 1.59191 12.5394 1.48329C11.0765 0.460524 9.20537 -0.0665475 7.29754 0.0067325C5.38972 0.0800125 3.58474 0.748285 2.24102 1.87886C1.52822 2.46942 0.963133 3.1719 0.578464 3.94562C0.193796 4.71935 -0.0028094 5.54896 3.03284e-05 6.38642C3.03284e-05 8.08906 0.795825 9.69008 2.19222 10.8502L10.5668 19.0163C10.8824 19.3247 11.2746 19.5724 11.7162 19.7422C12.1579 19.9121 12.6386 20 13.125 20C13.6115 20 14.0921 19.9121 14.5338 19.7422C14.9755 19.5724 15.3676 19.3247 15.6832 19.0163L24.0071 10.894C24.7201 10.3034 25.2854 9.601 25.6704 8.82729C26.0554 8.05358 26.2524 7.22396 26.25 6.38642C26.2516 5.54883 26.0541 4.71927 25.6688 3.94561C25.2835 3.17196 24.7181 2.46952 24.0052 1.87886ZM22.6501 9.84956L14.2755 18.0157C13.6993 18.5786 12.5469 18.5786 11.9707 18.0157L3.54732 9.80578C3.00684 9.35771 2.57841 8.82478 2.28685 8.23784C1.99529 7.6509 1.84638 7.02162 1.84875 6.38642C1.84875 5.09497 2.45123 3.88013 3.54732 2.96705C4.08604 2.51513 4.72667 2.15636 5.4324 1.91139C6.13812 1.66641 6.89501 1.54005 7.65955 1.53958C9.00206 1.53886 10.3022 1.93123 11.3326 2.6481C11.4095 2.70438 12.0984 3.19688 13.1231 3.19688C14.1197 3.19688 14.8236 2.7122 14.8874 2.6653C15.9969 1.88996 17.4158 1.49045 18.8625 1.54606C20.3092 1.60167 21.6779 2.10833 22.6971 2.96549C23.2396 3.41867 23.6691 3.95688 23.9606 4.54905C24.2521 5.14123 24.4 5.77564 24.3956 6.41567C24.3913 7.0557 24.2348 7.68867 23.9352 8.27805C23.6356 8.86743 23.1988 9.40154 22.6501 9.84956Z" fill="#B3B3B3"/>
</svg>
