<svg width="19" height="20" viewBox="0 0 19 20" fill="none" xmlns="http://www.w3.org/2000/svg">
<path d="M17.5695 18.3791L15.9028 16.7124M8.8195 17.5457C9.85913 17.5457 10.8886 17.341 11.8491 16.9431C12.8096 16.5453 13.6823 15.9621 14.4174 15.227C15.1526 14.4919 15.7357 13.6191 16.1335 12.6586C16.5314 11.6982 16.7362 10.6687 16.7362 9.62907C16.7362 8.58944 16.5314 7.55999 16.1335 6.59949C15.7357 5.639 15.1526 4.76627 14.4174 4.03114C13.6823 3.29601 12.8096 2.71287 11.8491 2.31502C10.8886 1.91717 9.85913 1.7124 8.8195 1.7124C6.71987 1.7124 4.70623 2.54648 3.22157 4.03114C1.73691 5.5158 0.902832 7.52944 0.902832 9.62907C0.902832 11.7287 1.73691 13.7423 3.22157 15.227C4.70623 16.7117 6.71987 17.5457 8.8195 17.5457Z" stroke="white" stroke-width="1.5" stroke-linecap="round" stroke-linejoin="round"/>
</svg>
