<svg width="24" height="25" viewBox="0 0 24 25" fill="none" xmlns="http://www.w3.org/2000/svg">
<path d="M16.3394 16.3073C15.8759 16.1611 15.2841 15.7801 14.6219 15.1171C14.0534 14.5606 13.4669 13.8436 12.8669 13.0621C12.7229 13.2533 12.5796 13.4446 12.4356 13.6396C12.0434 14.1706 11.6421 14.7068 11.2334 15.2341C12.6614 16.9666 14.1434 18.6676 16.3409 18.9481V20.9731L22.0071 17.7031L16.3401 14.4308V16.3073H16.3394ZM6.89389 9.7673C7.46089 10.3223 8.04739 11.0393 8.64889 11.8208C8.79439 11.6243 8.94139 11.4308 9.08839 11.2298C9.48021 10.6977 9.87824 10.1701 10.2824 9.6473C8.75839 7.7993 7.18264 5.96705 4.73539 5.8793H2.11039V8.5043H4.73539C5.22664 8.48405 5.99689 8.86805 6.89389 9.76655V9.7673ZM16.3394 8.57255V10.4746L22.0064 7.2023L16.3394 3.93005V5.9153C14.9114 6.0803 13.7706 6.9263 12.7769 7.8983C11.1291 9.5363 9.68914 11.7743 8.26789 13.5533C6.86764 15.3811 5.46289 16.4686 4.73389 16.3808H2.10889V19.0058H4.73389C6.37264 18.9833 7.64389 18.0563 8.73889 16.9861C10.3844 15.3481 11.8259 13.1108 13.2464 11.3326C14.4036 9.8198 15.5594 8.82755 16.3394 8.57255Z" fill="#C4C4C4"/>
</svg>
